<?xml version="1.0" encoding="UTF-8"?><svg xmlns="http://www.w3.org/2000/svg" xmlns:xlink="http://www.w3.org/1999/xlink" width="375pt" zoomAndPan="magnify" viewBox="0 0 375 374.999991" height="374.999991pt" preserveAspectRatio="xMidYMid meet" version="1.2"><defs><g/><clipPath xml:id="clip1" id="clip1"><path d="M 156 111.140625 L 237.109375 111.140625 L 237.109375 208 L 156 208 Z M 156 111.140625 "/></clipPath><clipPath xml:id="clip2" id="clip2"><path d="M 138.144531 146.320312 L 218.84375 146.320312 L 218.84375 217.128906 L 138.144531 217.128906 Z M 138.144531 146.320312 "/></clipPath></defs><g xml:id="surface1" id="surface1"><path style=" stroke:none;fill-rule:nonzero;fill:rgb(94.509888%,94.119263%,90.589905%);fill-opacity:1;" d="M 182.378906 122.949219 C 182.589844 121.796875 181.828125 120.695312 180.667969 120.484375 C 179.511719 120.273438 178.402344 121.039062 178.191406 122.191406 C 178.140625 122.480469 178.097656 122.773438 178.058594 123.070312 C 177.203125 130.019531 181.40625 136.710938 188.046875 138.976562 C 188.5625 139.152344 189.097656 139.238281 189.625 139.238281 C 190.871094 139.238281 192.089844 138.757812 193.019531 137.851562 C 195.441406 135.5 197 132.355469 197.414062 128.972656 C 197.695312 126.667969 196.714844 124.355469 194.859375 122.933594 C 193.574219 121.957031 192.511719 120.675781 191.789062 119.234375 C 191.261719 118.1875 189.984375 117.765625 188.933594 118.289062 C 187.882812 118.816406 187.457031 120.089844 187.984375 121.132812 C 188.996094 123.148438 190.476562 124.933594 192.265625 126.300781 C 192.933594 126.808594 193.289062 127.640625 193.1875 128.488281 C 192.886719 130.925781 191.800781 133.113281 190.046875 134.816406 C 189.878906 134.980469 189.640625 135.035156 189.421875 134.960938 C 184.675781 133.34375 181.671875 128.558594 182.285156 123.589844 C 182.308594 123.371094 182.34375 123.160156 182.378906 122.949219 "/><g clip-rule="nonzero" clip-path="url(#clip1)"><path style=" stroke:none;fill-rule:nonzero;fill:rgb(94.509888%,94.119263%,90.589905%);fill-opacity:1;" d="M 235.191406 182.90625 C 234.019531 182.792969 232.976562 183.640625 232.863281 184.808594 C 232.261719 190.824219 229.238281 196.296875 224.492188 200.25 C 226.007812 195.546875 227.074219 190.570312 227.738281 185.195312 C 230.492188 162.742188 223.191406 141.542969 206.625 123.878906 C 201.070312 117.960938 191.097656 111.09375 181.226562 111.140625 C 175.84375 111.179688 171.253906 113.246094 167.585938 117.273438 C 165.589844 119.46875 163.910156 121.421875 162.601562 123.085938 C 160.984375 125.136719 160.445312 127.855469 161.160156 130.359375 C 161.4375 131.316406 161.734375 132.277344 162.046875 133.230469 C 160.75 134.878906 159.289062 136.5625 157.414062 138.5625 C 156.453125 139.59375 155.992188 140.984375 156.148438 142.382812 C 156.308594 143.789062 157.070312 145.050781 158.242188 145.847656 C 159.960938 147.011719 161.726562 148.144531 162.628906 148.71875 C 165.621094 150.621094 169.351562 150.957031 172.613281 149.617188 C 174.308594 148.925781 176.050781 148.28125 177.789062 147.714844 C 178.144531 147.597656 178.390625 147.78125 178.511719 147.902344 C 178.628906 148.023438 178.808594 148.28125 178.679688 148.636719 C 177.464844 152 175.996094 155.300781 174.304688 158.453125 C 171.796875 163.144531 171.171875 168.515625 172.550781 173.585938 C 172.851562 174.714844 174.027344 175.382812 175.160156 175.074219 C 176.292969 174.769531 176.960938 173.605469 176.65625 172.472656 C 175.5625 168.453125 176.0625 164.183594 178.058594 160.449219 C 179.84375 157.117188 181.402344 153.625 182.683594 150.074219 C 183.328125 148.28125 182.902344 146.316406 181.5625 144.945312 C 180.226562 143.578125 178.273438 143.09375 176.460938 143.683594 C 174.625 144.285156 172.78125 144.960938 170.992188 145.699219 C 169.015625 146.507812 166.742188 146.304688 164.917969 145.140625 C 164.207031 144.695312 162.371094 143.519531 160.636719 142.339844 C 160.4375 142.207031 160.390625 142.015625 160.378906 141.914062 C 160.367188 141.792969 160.378906 141.613281 160.527344 141.453125 C 162.84375 138.988281 164.566406 136.960938 166.125 134.898438 C 166.546875 134.335938 166.664062 133.597656 166.4375 132.933594 C 166.011719 131.707031 165.613281 130.449219 165.253906 129.195312 C 164.910156 127.996094 165.167969 126.691406 165.945312 125.707031 C 167.199219 124.121094 168.808594 122.246094 170.738281 120.128906 C 173.578125 117.007812 177.113281 115.414062 181.257812 115.382812 C 181.300781 115.382812 181.34375 115.382812 181.386719 115.382812 C 189.828125 115.382812 198.574219 121.511719 203.515625 126.777344 C 219.417969 143.730469 226.148438 163.210938 223.511719 184.679688 C 222.609375 192.027344 220.90625 198.566406 218.308594 204.667969 C 217.960938 205.484375 218.160156 206.429688 218.804688 207.039062 C 219.210938 207.417969 219.734375 207.617188 220.265625 207.617188 C 220.589844 207.617188 220.910156 207.546875 221.210938 207.394531 C 230.214844 202.957031 236.15625 194.671875 237.097656 185.226562 C 237.214844 184.0625 236.359375 183.019531 235.191406 182.90625 "/></g><g clip-rule="nonzero" clip-path="url(#clip2)"><path style=" stroke:none;fill-rule:nonzero;fill:rgb(94.509888%,94.119263%,90.589905%);fill-opacity:1;" d="M 160.980469 204.394531 C 163.195312 201.0625 166.765625 199.128906 170.789062 199.085938 C 173.496094 199.050781 178.714844 200.246094 178.765625 204.960938 C 178.804688 208.4375 174.414062 211.015625 171.4375 211.660156 C 167.816406 212.453125 164.039062 211.636719 161.074219 209.425781 C 160.132812 208.726562 159.316406 207.921875 158.640625 207.027344 C 159.5 206.332031 160.28125 205.449219 160.980469 204.394531 Z M 217.164062 177.015625 C 217.085938 176.503906 217.027344 175.980469 216.96875 175.449219 C 216.902344 174.855469 216.832031 174.25 216.742188 173.625 C 217.902344 170.332031 218.472656 166.882812 218.433594 163.367188 L 218.429688 163.011719 C 218.339844 158.96875 215.398438 155.558594 211.433594 154.914062 C 210.65625 154.785156 209.878906 154.625 209.117188 154.425781 C 206.265625 150.769531 202.820312 148.203125 198.859375 146.796875 C 198.320312 146.605469 197.730469 146.636719 197.21875 146.882812 C 196.707031 147.128906 196.3125 147.570312 196.128906 148.109375 C 195.402344 150.226562 194.917969 152.421875 194.675781 154.652344 C 193.992188 154.984375 193.324219 155.347656 192.667969 155.734375 C 190.859375 154.972656 188.972656 154.386719 187.050781 153.984375 C 186.417969 153.855469 185.757812 154.015625 185.261719 154.425781 L 184.726562 154.867188 C 184.234375 155.277344 183.949219 155.886719 183.960938 156.523438 L 183.964844 157.042969 C 184.019531 161.207031 185.328125 165.355469 187.757812 169.050781 C 188.421875 170.0625 189.019531 171.128906 189.539062 172.222656 C 190.742188 174.769531 189.726562 177.789062 187.222656 179.09375 C 184.242188 180.652344 180.40625 181.617188 176.421875 181.800781 C 175.742188 181.835938 174.902344 181.816406 174.332031 181.765625 C 172.230469 181.566406 170.117188 181.722656 168.046875 182.234375 C 164.1875 183.1875 160.554688 185.058594 157.527344 187.65625 C 157.503906 187.679688 157.476562 187.703125 157.449219 187.726562 C 157.335938 187.832031 157.234375 187.945312 157.148438 188.070312 C 153.550781 191.441406 151.699219 196.164062 152.050781 201.101562 C 152.148438 202.476562 152.425781 203.816406 152.863281 205.101562 C 152.214844 205.238281 151.542969 205.296875 150.875 205.28125 C 148.421875 205.226562 146.199219 204.214844 144.625 202.445312 C 142.988281 200.605469 142.195312 198.085938 142.445312 195.53125 C 142.792969 192 144.746094 188.441406 147.675781 186.011719 C 148.375 185.429688 149.21875 184.9375 150.105469 184.410156 C 152.609375 182.941406 155.730469 181.105469 156.003906 176.605469 C 156.136719 174.449219 155.378906 172.410156 153.863281 170.859375 C 152.269531 169.230469 150.039062 168.339844 147.714844 168.414062 C 144.039062 168.53125 142.046875 171.0625 141.402344 173.394531 C 141.09375 174.523438 141.761719 175.691406 142.894531 176 C 144.027344 176.308594 145.199219 175.644531 145.511719 174.515625 C 145.691406 173.839844 146.246094 172.703125 147.855469 172.648438 C 148.960938 172.617188 150.054688 173.039062 150.808594 173.816406 C 151.28125 174.300781 151.832031 175.132812 151.757812 176.347656 C 151.625 178.5 150.359375 179.339844 147.945312 180.761719 C 146.949219 181.347656 145.917969 181.953125 144.953125 182.75 C 141.128906 185.925781 138.671875 190.433594 138.210938 195.117188 C 137.84375 198.839844 139.019531 202.535156 141.4375 205.257812 C 143.765625 207.875 147.007812 209.375 150.578125 209.507812 C 150.65625 209.515625 150.738281 209.535156 150.816406 209.535156 C 150.859375 209.535156 150.90625 209.523438 150.949219 209.519531 C 152.269531 209.535156 153.570312 209.351562 154.816406 208.976562 C 155.820312 210.433594 157.066406 211.734375 158.523438 212.824219 C 161.492188 215.03125 165.066406 216.195312 168.707031 216.195312 C 169.921875 216.195312 171.140625 216.066406 172.347656 215.808594 C 172.792969 215.707031 173.242188 215.582031 173.6875 215.4375 C 176.410156 216.542969 179.566406 217.128906 182.847656 217.128906 C 184.644531 217.128906 186.417969 216.953125 188.109375 216.609375 C 189.261719 216.375 190.003906 215.253906 189.769531 214.105469 C 189.53125 212.957031 188.402344 212.21875 187.257812 212.453125 C 185.84375 212.742188 184.363281 212.886719 182.847656 212.886719 C 181.535156 212.886719 180.257812 212.773438 179.035156 212.5625 C 181.398438 210.609375 183.054688 207.96875 183.023438 204.917969 C 182.953125 198.21875 176.800781 194.808594 170.742188 194.84375 C 165.285156 194.902344 160.4375 197.53125 157.433594 202.054688 C 157.1875 202.421875 156.933594 202.753906 156.671875 203.046875 C 156.476562 202.320312 156.351562 201.570312 156.296875 200.804688 C 156.023438 197.019531 157.5 193.417969 160.335938 190.910156 C 160.4375 190.820312 160.527344 190.722656 160.605469 190.617188 C 163.066406 188.582031 165.984375 187.113281 169.066406 186.351562 C 170.671875 185.953125 172.308594 185.832031 173.921875 185.984375 C 174.6875 186.058594 175.75 186.082031 176.621094 186.039062 C 181.210938 185.824219 185.679688 184.691406 189.199219 182.851562 C 193.730469 180.484375 195.566406 175.027344 193.386719 170.414062 C 192.785156 169.140625 192.089844 167.902344 191.316406 166.726562 C 189.664062 164.21875 188.648438 161.464844 188.328125 158.679688 C 189.558594 159.046875 190.761719 159.503906 191.925781 160.046875 C 192.589844 160.355469 193.367188 160.304688 193.980469 159.910156 C 195.121094 159.179688 196.316406 158.53125 197.550781 157.992188 C 198.273438 157.671875 198.761719 156.980469 198.8125 156.191406 C 198.914062 154.671875 199.148438 153.167969 199.507812 151.691406 C 202.007812 152.992188 204.234375 154.953125 206.140625 157.539062 C 206.417969 157.917969 206.8125 158.191406 207.265625 158.320312 C 208.40625 158.644531 209.574219 158.910156 210.746094 159.101562 C 212.6875 159.417969 214.128906 161.101562 214.171875 163.101562 L 214.179688 163.40625 C 214.214844 166.59375 213.667969 169.710938 212.5625 172.671875 C 212.429688 173.019531 212.394531 173.394531 212.457031 173.761719 C 212.574219 174.46875 212.660156 175.210938 212.738281 175.925781 C 212.804688 176.5 212.871094 177.066406 212.949219 177.621094 C 214.234375 186.511719 210.628906 201.257812 201.425781 211.074219 C 200.808594 211.730469 200.675781 212.710938 201.101562 213.511719 C 201.523438 214.308594 202.402344 214.75 203.304688 214.613281 C 207.324219 214 210.472656 213.042969 213.511719 211.523438 C 214.5625 210.996094 214.984375 209.71875 214.457031 208.671875 C 213.925781 207.625 212.644531 207.207031 211.597656 207.734375 C 210.582031 208.242188 209.5625 208.675781 208.492188 209.046875 C 215.664062 198.664062 218.382812 185.476562 217.164062 177.015625 "/></g><g style="fill:rgb(94.509888%,94.119263%,90.589905%);fill-opacity:1;"><g transform="translate(104.390036, 256.62889)"><path style="stroke:none;" d="M 2.765625 -20.59375 L 6.59375 -20.59375 L 6.59375 -3.234375 L 17.359375 -3.234375 L 17.359375 0 L 2.765625 0 Z M 2.765625 -20.59375 "/></g></g><g style="fill:rgb(94.509888%,94.119263%,90.589905%);fill-opacity:1;"><g transform="translate(122.009016, 256.62889)"><path style="stroke:none;" d="M 12.390625 0.296875 C 10.285156 0.296875 8.390625 -0.15625 6.703125 -1.0625 C 5.015625 -1.976562 3.691406 -3.242188 2.734375 -4.859375 C 1.773438 -6.484375 1.296875 -8.296875 1.296875 -10.296875 C 1.296875 -12.296875 1.773438 -14.101562 2.734375 -15.71875 C 3.691406 -17.34375 5.015625 -18.609375 6.703125 -19.515625 C 8.390625 -20.429688 10.285156 -20.890625 12.390625 -20.890625 C 14.484375 -20.890625 16.375 -20.429688 18.0625 -19.515625 C 19.75 -18.609375 21.070312 -17.347656 22.03125 -15.734375 C 23 -14.128906 23.484375 -12.316406 23.484375 -10.296875 C 23.484375 -8.273438 23 -6.457031 22.03125 -4.84375 C 21.070312 -3.238281 19.75 -1.976562 18.0625 -1.0625 C 16.375 -0.15625 14.484375 0.296875 12.390625 0.296875 Z M 12.390625 -3.0625 C 13.765625 -3.0625 15 -3.367188 16.09375 -3.984375 C 17.1875 -4.597656 18.046875 -5.457031 18.671875 -6.5625 C 19.304688 -7.675781 19.625 -8.921875 19.625 -10.296875 C 19.625 -11.671875 19.304688 -12.910156 18.671875 -14.015625 C 18.046875 -15.128906 17.1875 -15.992188 16.09375 -16.609375 C 15 -17.222656 13.765625 -17.53125 12.390625 -17.53125 C 11.015625 -17.53125 9.773438 -17.222656 8.671875 -16.609375 C 7.578125 -15.992188 6.71875 -15.128906 6.09375 -14.015625 C 5.46875 -12.910156 5.15625 -11.671875 5.15625 -10.296875 C 5.15625 -8.921875 5.46875 -7.675781 6.09375 -6.5625 C 6.71875 -5.457031 7.578125 -4.597656 8.671875 -3.984375 C 9.773438 -3.367188 11.015625 -3.0625 12.390625 -3.0625 Z M 12.390625 -3.0625 "/></g></g><g style="fill:rgb(94.509888%,94.119263%,90.589905%);fill-opacity:1;"><g transform="translate(146.775597, 256.62889)"><path style="stroke:none;" d="M 9.15625 0.296875 C 7.5625 0.296875 6.023438 0.0703125 4.546875 -0.375 C 3.066406 -0.832031 1.894531 -1.429688 1.03125 -2.171875 L 2.359375 -5.15625 C 3.203125 -4.488281 4.234375 -3.941406 5.453125 -3.515625 C 6.679688 -3.097656 7.914062 -2.890625 9.15625 -2.890625 C 10.675781 -2.890625 11.8125 -3.132812 12.5625 -3.625 C 13.320312 -4.113281 13.703125 -4.757812 13.703125 -5.5625 C 13.703125 -6.144531 13.492188 -6.628906 13.078125 -7.015625 C 12.660156 -7.398438 12.125 -7.695312 11.46875 -7.90625 C 10.820312 -8.125 9.941406 -8.375 8.828125 -8.65625 C 7.253906 -9.019531 5.984375 -9.390625 5.015625 -9.765625 C 4.046875 -10.140625 3.210938 -10.722656 2.515625 -11.515625 C 1.816406 -12.304688 1.46875 -13.378906 1.46875 -14.734375 C 1.46875 -15.878906 1.773438 -16.914062 2.390625 -17.84375 C 3.015625 -18.769531 3.945312 -19.507812 5.1875 -20.0625 C 6.4375 -20.613281 7.960938 -20.890625 9.765625 -20.890625 C 11.023438 -20.890625 12.257812 -20.734375 13.46875 -20.421875 C 14.6875 -20.109375 15.738281 -19.65625 16.625 -19.0625 L 15.421875 -16.09375 C 14.515625 -16.625 13.570312 -17.023438 12.59375 -17.296875 C 11.613281 -17.578125 10.660156 -17.71875 9.734375 -17.71875 C 8.222656 -17.71875 7.097656 -17.460938 6.359375 -16.953125 C 5.628906 -16.441406 5.265625 -15.765625 5.265625 -14.921875 C 5.265625 -14.328125 5.472656 -13.84375 5.890625 -13.46875 C 6.316406 -13.101562 6.851562 -12.8125 7.5 -12.59375 C 8.144531 -12.375 9.03125 -12.128906 10.15625 -11.859375 C 11.6875 -11.503906 12.941406 -11.132812 13.921875 -10.75 C 14.898438 -10.375 15.734375 -9.789062 16.421875 -9 C 17.117188 -8.21875 17.46875 -7.160156 17.46875 -5.828125 C 17.46875 -4.691406 17.160156 -3.660156 16.546875 -2.734375 C 15.929688 -1.816406 14.992188 -1.082031 13.734375 -0.53125 C 12.484375 0.0195312 10.957031 0.296875 9.15625 0.296875 Z M 9.15625 0.296875 "/></g></g><g style="fill:rgb(94.509888%,94.119263%,90.589905%);fill-opacity:1;"><g transform="translate(165.276995, 256.62889)"><path style="stroke:none;" d="M 6.9375 -17.359375 L 0.125 -17.359375 L 0.125 -20.59375 L 17.59375 -20.59375 L 17.59375 -17.359375 L 10.765625 -17.359375 L 10.765625 0 L 6.9375 0 Z M 6.9375 -17.359375 "/></g></g><g style="fill:rgb(94.509888%,94.119263%,90.589905%);fill-opacity:1;"><g transform="translate(182.98422, 256.62889)"><path style="stroke:none;" d=""/></g></g><g style="fill:rgb(94.509888%,94.119263%,90.589905%);fill-opacity:1;"><g transform="translate(191.102486, 256.62889)"><path style="stroke:none;" d="M 11.234375 -20.59375 C 13.023438 -20.59375 14.582031 -20.296875 15.90625 -19.703125 C 17.226562 -19.117188 18.238281 -18.273438 18.9375 -17.171875 C 19.644531 -16.078125 20 -14.773438 20 -13.265625 C 20 -11.773438 19.644531 -10.472656 18.9375 -9.359375 C 18.238281 -8.253906 17.226562 -7.40625 15.90625 -6.8125 C 14.582031 -6.226562 13.023438 -5.9375 11.234375 -5.9375 L 6.59375 -5.9375 L 6.59375 0 L 2.765625 0 L 2.765625 -20.59375 Z M 11.0625 -9.171875 C 12.726562 -9.171875 13.992188 -9.523438 14.859375 -10.234375 C 15.722656 -10.941406 16.15625 -11.953125 16.15625 -13.265625 C 16.15625 -14.578125 15.722656 -15.585938 14.859375 -16.296875 C 13.992188 -17.003906 12.726562 -17.359375 11.0625 -17.359375 L 6.59375 -17.359375 L 6.59375 -9.171875 Z M 11.0625 -9.171875 "/></g></g><g style="fill:rgb(94.509888%,94.119263%,90.589905%);fill-opacity:1;"><g transform="translate(212.457046, 256.62889)"><path style="stroke:none;" d="M 16.125 -4.765625 L 5.828125 -4.765625 L 3.796875 0 L -0.140625 0 L 9.125 -20.59375 L 12.890625 -20.59375 L 22.1875 0 L 18.1875 0 Z M 14.859375 -7.765625 L 10.96875 -16.765625 L 7.125 -7.765625 Z M 14.859375 -7.765625 "/></g></g><g style="fill:rgb(94.509888%,94.119263%,90.589905%);fill-opacity:1;"><g transform="translate(234.488134, 256.62889)"><path style="stroke:none;" d="M 2.765625 -20.59375 L 6.59375 -20.59375 L 6.59375 -3.234375 L 17.359375 -3.234375 L 17.359375 0 L 2.765625 0 Z M 2.765625 -20.59375 "/></g></g><g style="fill:rgb(94.509888%,94.119263%,90.589905%);fill-opacity:1;"><g transform="translate(252.107113, 256.62889)"><path style="stroke:none;" d="M 9.15625 0.296875 C 7.5625 0.296875 6.023438 0.0703125 4.546875 -0.375 C 3.066406 -0.832031 1.894531 -1.429688 1.03125 -2.171875 L 2.359375 -5.15625 C 3.203125 -4.488281 4.234375 -3.941406 5.453125 -3.515625 C 6.679688 -3.097656 7.914062 -2.890625 9.15625 -2.890625 C 10.675781 -2.890625 11.8125 -3.132812 12.5625 -3.625 C 13.320312 -4.113281 13.703125 -4.757812 13.703125 -5.5625 C 13.703125 -6.144531 13.492188 -6.628906 13.078125 -7.015625 C 12.660156 -7.398438 12.125 -7.695312 11.46875 -7.90625 C 10.820312 -8.125 9.941406 -8.375 8.828125 -8.65625 C 7.253906 -9.019531 5.984375 -9.390625 5.015625 -9.765625 C 4.046875 -10.140625 3.210938 -10.722656 2.515625 -11.515625 C 1.816406 -12.304688 1.46875 -13.378906 1.46875 -14.734375 C 1.46875 -15.878906 1.773438 -16.914062 2.390625 -17.84375 C 3.015625 -18.769531 3.945312 -19.507812 5.1875 -20.0625 C 6.4375 -20.613281 7.960938 -20.890625 9.765625 -20.890625 C 11.023438 -20.890625 12.257812 -20.734375 13.46875 -20.421875 C 14.6875 -20.109375 15.738281 -19.65625 16.625 -19.0625 L 15.421875 -16.09375 C 14.515625 -16.625 13.570312 -17.023438 12.59375 -17.296875 C 11.613281 -17.578125 10.660156 -17.71875 9.734375 -17.71875 C 8.222656 -17.71875 7.097656 -17.460938 6.359375 -16.953125 C 5.628906 -16.441406 5.265625 -15.765625 5.265625 -14.921875 C 5.265625 -14.328125 5.472656 -13.84375 5.890625 -13.46875 C 6.316406 -13.101562 6.851562 -12.8125 7.5 -12.59375 C 8.144531 -12.375 9.03125 -12.128906 10.15625 -11.859375 C 11.6875 -11.503906 12.941406 -11.132812 13.921875 -10.75 C 14.898438 -10.375 15.734375 -9.789062 16.421875 -9 C 17.117188 -8.21875 17.46875 -7.160156 17.46875 -5.828125 C 17.46875 -4.691406 17.160156 -3.660156 16.546875 -2.734375 C 15.929688 -1.816406 14.992188 -1.082031 13.734375 -0.53125 C 12.484375 0.0195312 10.957031 0.296875 9.15625 0.296875 Z M 9.15625 0.296875 "/></g></g></g></svg>